<?xml version="1.0" standalone="no"?>
<!DOCTYPE svg PUBLIC "-//W3C//DTD SVG 1.1//EN" "http://www.w3.org/Graphics/SVG/1.1/DTD/svg11.dtd">
<svg width="100%" height="100%" viewBox="0 0 622 117" version="1.1" xmlns="http://www.w3.org/2000/svg" xmlns:xlink="http://www.w3.org/1999/xlink" xml:space="preserve" style="fill-rule:evenodd;clip-rule:evenodd;stroke-linejoin:round;stroke-miterlimit:1.41421;">
    <g transform="matrix(0.393701,0,0,0.393701,-0,-0)">
        <g>
            <g id="Layer1">
                <path d="M109.944,0C109.944,0 174.662,-5.456 216.007,48.265C216.007,48.265 235.782,75.165 266.61,75.165L266.61,148.5L132.346,148.5L132.346,120.222C132.346,120.222 130.591,85.606 97.788,85.606L19.513,85.606C19.513,85.606 0,83.688 0,69.282C0,69.282 -0.303,62.059 8.323,53.947C8.323,53.947 61.55,0 109.944,0Z" style="fill:rgb(36,48,69);"/>
            </g>
            <g id="Layer11" transform="matrix(1,0,0,-1,0,295.844)">
                <path d="M109.944,0C109.944,0 174.662,-5.456 216.007,48.265C216.007,48.265 235.782,75.165 266.61,75.165L266.61,148.5L132.346,148.5L132.346,120.222C132.346,120.222 130.591,85.606 97.788,85.606L19.513,85.606C19.513,85.606 0,83.688 0,69.282C0,69.282 -0.303,62.059 8.323,53.947C8.323,53.947 61.55,0 109.944,0Z" style="fill:rgb(36,48,69);"/>
            </g>
            <g id="Layer2" transform="matrix(1,0,0,0.995225,0,0.186889)">
                <path d="M266.61,75.329L309.129,75.329L283.135,221.543L266.61,221.543L264.387,216.29L262.216,84.002L266.61,75.329Z" style="fill:rgb(36,48,69);"/>
            </g>
        </g>
        <g>
            <g transform="matrix(3.11901,0,-0.536061,3.11901,-1390.7,-267.134)">
                <text x="568.919px" y="156.608px" style="font-family:xscale;font-size:127px;font-weight:700;fill:rgb(99,110,126);">TIRBOX</text>
            </g>
            <path d="M743.047,138.934L677.562,138.934L677.621,163.469L677.705,164.621L754.266,164.621L743.047,138.934Z" style="fill:rgb(99,110,126);"/>
        </g>
    </g>
</svg>
